<?xml version="1.0" encoding="UTF-8" standalone="no"?>
<!-- Created with Bouml (http://bouml.free.fr/) -->
<!DOCTYPE svg PUBLIC "-//W3C//DTD SVG 1.1//EN" "http://www.w3.org/Graphics/SVG/1.1/DTD/svg11.dtd">
<svg width="834" height="550" version="1.1" xmlns="http://www.w3.org/2000/svg">
<g>
	<rect fill="#808080" stroke="none" stroke-opacity="1" x="259" y="58" width="3" height="59" />
	<rect fill="#808080" stroke="none" stroke-opacity="1" x="55" y="114" width="207" height="3" />
	<rect fill="#ffffc0" stroke="black" stroke-width="1" stroke-opacity="1" x="51" y="54" width="208" height="60" />
	<text font-family="Helvetica" font-size="10" fill="#000000" xml:space="preserve" font-weight="bold" font-style="italic" text-anchor="middle" x="155" y="67">BaseView</text>
	<line stroke="black" stroke-opacity="1" x1="51" y1="72" x2="259" y2="72" />
	<line stroke="black" stroke-opacity="1" x1="51" y1="80" x2="259" y2="80" />
	<text font-family="Helvetica" font-size="10" fill="#000000" xml:space="preserve" font-weight="bold" x="55" y="93">+</text>
	<text font-family="Helvetica" font-size="10" fill="#000000" xml:space="preserve" x="67" y="93">renderBaseLayout() : void</text>
	<text font-family="Helvetica" font-size="10" fill="#000000" xml:space="preserve" font-weight="bold" x="55" y="109">+</text>
	<text font-family="Helvetica" font-size="10" fill="#000000" xml:space="preserve" x="67" y="109">setContent(content : Component) : void</text>
</g>
<g>
	<rect fill="#808080" stroke="none" stroke-opacity="1" x="559" y="63" width="3" height="43" />
	<rect fill="#808080" stroke="none" stroke-opacity="1" x="345" y="103" width="217" height="3" />
	<rect fill="#ffffc0" stroke="black" stroke-width="1" stroke-opacity="1" x="341" y="59" width="218" height="44" />
	<text font-family="Helvetica" font-size="10" fill="#000000" xml:space="preserve" font-weight="bold" font-style="italic" text-anchor="middle" x="450" y="72">BasePresenter</text>
	<line stroke="black" stroke-opacity="1" x1="341" y1="77" x2="559" y2="77" />
	<line stroke="black" stroke-opacity="1" x1="341" y1="85" x2="559" y2="85" />
	<text font-family="Helvetica" font-size="10" fill="#000000" xml:space="preserve" font-weight="bold" x="345" y="98">+</text>
	<text font-family="Helvetica" font-size="10" fill="#000000" xml:space="preserve" x="357" y="98">changeLanguage(lang : Language) : void</text>
</g>
<g>
	<rect fill="#808080" stroke="none" stroke-opacity="1" x="270" y="251" width="3" height="107" />
	<rect fill="#808080" stroke="none" stroke-opacity="1" x="42" y="355" width="231" height="3" />
	<rect fill="#ffffc0" stroke="black" stroke-width="1" stroke-opacity="1" x="38" y="247" width="232" height="108" />
	<text font-family="Helvetica" font-size="10" fill="#000000" xml:space="preserve" font-weight="bold" text-anchor="middle" x="154" y="260">RecognitionView</text>
	<line stroke="black" stroke-opacity="1" x1="38" y1="265" x2="270" y2="265" />
	<line stroke="black" stroke-opacity="1" x1="38" y1="273" x2="270" y2="273" />
	<text font-family="Helvetica" font-size="10" fill="#000000" xml:space="preserve" font-weight="bold" x="42" y="286">+</text>
	<text font-family="Helvetica" font-size="10" fill="#000000" xml:space="preserve" x="54" y="286">setSearchResult(result : NNMetaData) : void</text>
	<text font-family="Helvetica" font-size="10" fill="#000000" xml:space="preserve" font-weight="bold" x="42" y="302">+</text>
	<text font-family="Helvetica" font-size="10" fill="#000000" xml:space="preserve" x="54" y="302">setNN(nn : NNMetaData) : void</text>
	<text font-family="Helvetica" font-size="10" fill="#000000" xml:space="preserve" font-weight="bold" x="42" y="318">+</text>
	<text font-family="Helvetica" font-size="10" fill="#000000" xml:space="preserve" x="54" y="318">resetView() : void</text>
	<text font-family="Helvetica" font-size="10" fill="#000000" xml:space="preserve" font-weight="bold" x="42" y="334">+</text>
	<text font-family="Helvetica" font-size="10" fill="#000000" xml:space="preserve" x="54" y="334">resetDrawArea() : void</text>
	<text font-family="Helvetica" font-size="10" fill="#000000" xml:space="preserve" font-weight="bold" x="42" y="350">+</text>
	<text font-family="Helvetica" font-size="10" fill="#000000" xml:space="preserve" x="54" y="350">setRecognitionResult(result : string)</text>
</g>
<g>
	<rect fill="#808080" stroke="none" stroke-opacity="1" x="557" y="462" width="3" height="75" />
	<rect fill="#808080" stroke="none" stroke-opacity="1" x="345" y="534" width="215" height="3" />
	<rect fill="#ffffc0" stroke="black" stroke-width="1" stroke-opacity="1" x="341" y="458" width="216" height="76" />
	<text font-family="Helvetica" font-size="10" fill="#000000" xml:space="preserve" font-weight="bold" text-anchor="middle" x="449" y="471">RecognitionPresenter</text>
	<line stroke="black" stroke-opacity="1" x1="341" y1="476" x2="557" y2="476" />
	<line stroke="black" stroke-opacity="1" x1="341" y1="484" x2="557" y2="484" />
	<text font-family="Helvetica" font-size="10" fill="#000000" xml:space="preserve" font-weight="bold" x="345" y="497">+</text>
	<text font-family="Helvetica" font-size="10" fill="#000000" xml:space="preserve" x="357" y="497">searchNN(name : string) : void</text>
	<text font-family="Helvetica" font-size="10" fill="#000000" xml:space="preserve" font-weight="bold" x="345" y="513">+</text>
	<text font-family="Helvetica" font-size="10" fill="#000000" xml:space="preserve" x="357" y="513">loadNN(id : UUID) : void</text>
	<text font-family="Helvetica" font-size="10" fill="#000000" xml:space="preserve" font-weight="bold" x="345" y="529">+</text>
	<text font-family="Helvetica" font-size="10" fill="#000000" xml:space="preserve" x="357" y="529">handleDrawData(data : DrawData) : void</text>
</g>
<g>
	<rect fill="#808080" stroke="none" stroke-opacity="1" x="818" y="311" width="3" height="43" />
	<rect fill="#808080" stroke="none" stroke-opacity="1" x="630" y="351" width="191" height="3" />
	<rect fill="#ffffc0" stroke="black" stroke-width="1" stroke-opacity="1" x="626" y="307" width="192" height="44" />
	<text font-family="Helvetica" font-size="10" fill="#000000" xml:space="preserve" font-weight="bold" text-anchor="middle" x="722" y="320">RecognitionService</text>
	<line stroke="black" stroke-opacity="1" x1="626" y1="325" x2="818" y2="325" />
	<line stroke="black" stroke-opacity="1" x1="626" y1="333" x2="818" y2="333" />
	<text font-family="Helvetica" font-size="10" fill="#000000" xml:space="preserve" font-weight="bold" x="630" y="346">+</text>
	<text font-family="Helvetica" font-size="10" fill="#000000" xml:space="preserve" x="642" y="346">getSampleWorker() : SampleWorker</text>
</g>
<g>
	<rect fill="#808080" stroke="none" stroke-opacity="1" x="811" y="68" width="3" height="43" />
	<rect fill="#808080" stroke="none" stroke-opacity="1" x="639" y="108" width="175" height="3" />
	<rect fill="#ffffc0" stroke="black" stroke-width="1" stroke-opacity="1" x="635" y="64" width="176" height="44" />
	<text font-family="Helvetica" font-size="10" fill="#000000" xml:space="preserve" font-weight="bold" text-anchor="middle" x="723" y="77">SampleWorker</text>
	<line stroke="black" stroke-opacity="1" x1="635" y1="82" x2="811" y2="82" />
	<line stroke="black" stroke-opacity="1" x1="635" y1="90" x2="811" y2="90" />
	<text font-family="Helvetica" font-size="10" fill="#000000" xml:space="preserve" font-weight="bold" x="639" y="103">+</text>
	<text font-family="Helvetica" font-size="10" fill="#000000" xml:space="preserve" x="651" y="103">doSomething(args : string) : void</text>
</g>
<g>
	<line stroke="black" stroke-opacity="1" x1="451" y1="457" x2="451" y2="113" />
	<line stroke="black" stroke-opacity="1" x1="451" y1="107" x2="445" y2="113" />
	<line stroke="black" stroke-opacity="1" x1="451" y1="107" x2="457" y2="113" />
	<line stroke="black" stroke-opacity="1" x1="445" y1="113" x2="457" y2="113" />
</g>
<g>
	<line stroke="black" stroke-opacity="1" x1="156" y1="246" x2="156" y2="124" />
	<line stroke="black" stroke-opacity="1" x1="156" y1="118" x2="150" y2="124" />
	<line stroke="black" stroke-opacity="1" x1="156" y1="118" x2="162" y2="124" />
	<line stroke="black" stroke-opacity="1" x1="150" y1="124" x2="162" y2="124" />
</g>
<g>
	<line stroke="black" stroke-opacity="1" x1="680" y1="355" x2="671" y2="353" />
	<line stroke="black" stroke-opacity="1" x1="680" y1="355" x2="678" y2="363" />
	<line stroke="black" stroke-opacity="1" x1="514" y1="457" x2="680" y2="355" />
</g>
<g>
	<line stroke="black" stroke-opacity="1" x1="241" y1="359" x2="390" y2="457" />
</g>
<g>
	<line stroke="black" stroke-opacity="1" x1="724" y1="112" x2="718" y2="118" />
	<line stroke="black" stroke-opacity="1" x1="724" y1="112" x2="730" y2="118" />
	<line stroke="black" stroke-opacity="1" x1="724" y1="306" x2="724" y2="112" />
</g>
<g>
	<text font-family="Helvetica" font-size="10" fill="#000000" xml:space="preserve" x="382" y="442">1</text>
</g>
<g>
	<text font-family="Helvetica" font-size="10" fill="#000000" xml:space="preserve" x="603" y="374">service</text>
</g>
<g>
	<text font-family="Helvetica" font-size="10" fill="#000000" xml:space="preserve" x="274" y="371">view</text>
</g>
<g>
	<text font-family="Helvetica" font-size="10" fill="#000000" xml:space="preserve" x="669" y="376">1</text>
</g>
<g>
	<text font-family="Helvetica" font-size="10" fill="#000000" xml:space="preserve" x="313" y="453">presenter</text>
</g>
<g>
	<text font-family="Helvetica" font-size="10" fill="#000000" xml:space="preserve" x="251" y="383">1</text>
</g>
<g>
	<text font-family="Helvetica" font-size="10" fill="#000000" xml:space="preserve" x="734" y="130">sampleWorker</text>
</g>
<g>
	<text font-family="Helvetica" font-size="10" fill="#000000" xml:space="preserve" x="708" y="130">1</text>
</g>
</svg>
