<?xml version="1.0" encoding="UTF-8" standalone="no"?>
<!-- Created with Bouml (http://bouml.free.fr/) -->

<svg
   xmlns:dc="http://purl.org/dc/elements/1.1/"
   xmlns:cc="http://creativecommons.org/ns#"
   xmlns:rdf="http://www.w3.org/1999/02/22-rdf-syntax-ns#"
   xmlns:svg="http://www.w3.org/2000/svg"
   xmlns="http://www.w3.org/2000/svg"
   xmlns:sodipodi="http://sodipodi.sourceforge.net/DTD/sodipodi-0.dtd"
   xmlns:inkscape="http://www.inkscape.org/namespaces/inkscape"
   width="1432.2223"
   height="771.72223"
   version="1.1"
   id="svg2"
   inkscape:version="0.91 r13725"
   sodipodi:docname="convertJsonNNSD.svg">
  <metadata
     id="metadata156">
    <rdf:RDF>
      <cc:Work
         rdf:about="">
        <dc:format>image/svg+xml</dc:format>
        <dc:type
           rdf:resource="http://purl.org/dc/dcmitype/StillImage" />
        <dc:title></dc:title>
      </cc:Work>
    </rdf:RDF>
  </metadata>
  <defs
     id="defs154" />
  <sodipodi:namedview
     pagecolor="#ffffff"
     bordercolor="#666666"
     borderopacity="1"
     objecttolerance="10"
     gridtolerance="10"
     guidetolerance="10"
     inkscape:pageopacity="0"
     inkscape:pageshadow="2"
     inkscape:window-width="1280"
     inkscape:window-height="748"
     id="namedview152"
     showgrid="false"
     fit-margin-top="0"
     fit-margin-left="0"
     fit-margin-right="0"
     fit-margin-bottom="0"
     inkscape:zoom="0.79802957"
     inkscape:cx="1147.3096"
     inkscape:cy="596.86765"
     inkscape:window-x="0"
     inkscape:window-y="24"
     inkscape:window-maximized="1"
     inkscape:current-layer="svg2" />
  <g
     id="g4"
     transform="matrix(2.7023061,0,0,2.7023061,-178.35219,-25.458071)">
    <line
       x1="153"
       y1="45"
       x2="153"
       y2="295"
       id="line6"
       style="stroke:#000000;stroke-dasharray:18, 6;stroke-opacity:1" />
  </g>
  <g
     id="g8"
     transform="matrix(2.7023061,0,0,2.7023061,-178.35219,-25.458071)">
    <line
       x1="441"
       y1="45"
       x2="441"
       y2="295"
       id="line10"
       style="stroke:#000000;stroke-dasharray:18, 6;stroke-opacity:1" />
  </g>
  <g
     id="g12"
     transform="matrix(2.7023061,0,0,2.7023061,-178.35219,-25.458071)">
    <line
       x1="308"
       y1="45"
       x2="308"
       y2="295"
       id="line14"
       style="stroke:#000000;stroke-dasharray:18, 6;stroke-opacity:1" />
  </g>
  <g
     id="g16"
     transform="matrix(2.7023061,0,0,2.7023061,-178.35219,-25.458071)">
    <line
       x1="564"
       y1="45"
       x2="564"
       y2="295"
       id="line18"
       style="stroke:#000000;stroke-dasharray:18, 6;stroke-opacity:1" />
  </g>
  <g
     id="g20"
     transform="matrix(2.7023061,0,0,2.7023061,-178.35219,-3.4580711)">
    <rect
       x="180"
       y="8"
       width="3"
       height="20"
       id="rect22"
       style="fill:#808080;stroke:none;stroke-opacity:1" />
    <rect
       x="127"
       y="25"
       width="56"
       height="3"
       id="rect24"
       style="fill:#808080;stroke:none;stroke-opacity:1" />
    <rect
       x="123"
       y="4"
       width="57"
       height="21"
       id="rect26"
       style="fill:#ffffc0;stroke:#000000;stroke-width:1;stroke-opacity:1" />
    <text
       font-size="10"
       xml:space="preserve"
       text-decoration="underline"
       x="152"
       y="17.779675"
       id="text28"
       style="font-size:10px;font-family:Helvetica;text-decoration: underline;text-decoration-line: underline;text-anchor:middle;fill:#000000">:Presenter</text>
  </g>
  <g
     id="g30"
     transform="matrix(2.7023061,0,0,2.7023061,-178.35219,-7.4580714)">
    <rect
       x="492"
       y="8"
       width="3"
       height="20"
       id="rect32"
       style="fill:#808080;stroke:none;stroke-opacity:1" />
    <rect
       x="391"
       y="25"
       width="104"
       height="3"
       id="rect34"
       style="fill:#808080;stroke:none;stroke-opacity:1" />
    <rect
       x="387"
       y="4"
       width="105"
       height="21"
       id="rect36"
       style="fill:#ffffc0;stroke:#000000;stroke-width:1;stroke-opacity:1" />
    <text
       font-size="10"
       xml:space="preserve"
       text-decoration="underline"
       x="440"
       y="17.779675"
       id="text38"
       style="font-size:10px;font-family:Helvetica;text-decoration: underline;text-decoration-line: underline;text-anchor:middle;fill:#000000">:NeuralNetConverter</text>
  </g>
  <g
     id="g40"
     transform="matrix(2.7023061,0,0,2.7023061,-178.35219,-7.4580714)">
    <rect
       x="352"
       y="8"
       width="3"
       height="20"
       id="rect42"
       style="fill:#808080;stroke:none;stroke-opacity:1" />
    <rect
       x="264"
       y="25"
       width="91"
       height="3"
       id="rect44"
       style="fill:#808080;stroke:none;stroke-opacity:1" />
    <rect
       x="260"
       y="4"
       width="92"
       height="21"
       id="rect46"
       style="fill:#ffffc0;stroke:#000000;stroke-width:1;stroke-opacity:1" />
    <text
       font-size="10"
       xml:space="preserve"
       text-decoration="underline"
       x="306"
       y="17.779675"
       id="text48"
       style="font-size:10px;font-family:Helvetica;text-decoration: underline;text-decoration-line: underline;text-anchor:middle;fill:#000000">:NeuralNetWorker</text>
  </g>
  <g
     id="g50"
     transform="matrix(2.7023061,0,0,2.7023061,-178.35219,-9.4580714)">
    <rect
       x="593"
       y="8"
       width="3"
       height="20"
       id="rect52"
       style="fill:#808080;stroke:none;stroke-opacity:1" />
    <rect
       x="535"
       y="25"
       width="61"
       height="3"
       id="rect54"
       style="fill:#808080;stroke:none;stroke-opacity:1" />
    <rect
       x="531"
       y="4"
       width="62"
       height="21"
       id="rect56"
       style="fill:#ffffc0;stroke:#000000;stroke-width:1;stroke-opacity:1" />
    <text
       font-size="10"
       xml:space="preserve"
       text-decoration="underline"
       x="562"
       y="17.779675"
       id="text58"
       style="font-size:10px;font-family:Helvetica;text-decoration: underline;text-decoration-line: underline;text-anchor:middle;fill:#000000">:Repository</text>
  </g>
  <g
     id="g60"
     transform="matrix(2.7023061,0,0,2.7023061,-178.35219,-25.458071)"
     style="fill:#ffffff;fill-opacity:1;stroke:#000000;stroke-opacity:1">
    <rect
       x="148"
       y="51"
       width="10"
       height="232"
       id="rect62"
       style="fill:#ffffff;fill-opacity:1;stroke:#000000;stroke-width:1;stroke-opacity:1" />
  </g>
  <g
     id="g64"
     transform="matrix(2.7023061,0,0,2.7023061,-178.35219,-25.458071)"
     style="fill:#ffffff;fill-opacity:1;stroke:#000000;stroke-opacity:1">
    <rect
       x="303"
       y="135"
       width="10"
       height="132"
       id="rect66"
       style="fill:#ffffff;fill-opacity:1;stroke:#000000;stroke-width:1;stroke-opacity:1" />
  </g>
  <g
     id="g68"
     transform="matrix(2.7023061,0,0,2.7023061,-178.35219,-25.458071)"
     style="fill:#ffffff;fill-opacity:1">
    <rect
       x="436"
       y="152"
       width="10"
       height="42"
       id="rect70"
       style="fill:#ffffff;fill-opacity:1;stroke:#000000;stroke-width:1;stroke-opacity:1" />
  </g>
  <g
     id="g72"
     transform="matrix(2.7023061,0,0,2.7023061,-178.35219,-25.458071)"
     style="fill:#ffffff;fill-opacity:1">
    <rect
       x="559"
       y="214"
       width="10"
       height="40"
       id="rect74"
       style="fill:#ffffff;fill-opacity:1;stroke:#000000;stroke-width:1;stroke-opacity:1" />
  </g>
  <g
     id="g76"
     transform="matrix(2.7023061,0,0,2.7023061,-178.35219,-25.458071)">
    <line
       x1="75"
       y1="57"
       x2="148"
       y2="57"
       id="line78"
       style="stroke:#000000;stroke-opacity:1" />
    <polygon
       points="144,53 144,61 148,57 "
       id="polygon80"
       style="fill:#000000;stroke:none" />
  </g>
  <g
     id="g82"
     transform="matrix(2.7023061,0,0,2.7023061,-178.35219,-25.458071)">
    <line
       x1="159"
       y1="140"
       x2="303"
       y2="140"
       id="line84"
       style="stroke:#000000;stroke-opacity:1" />
    <polygon
       points="299,136 299,144 303,140 "
       id="polygon86"
       style="fill:#000000;stroke:none" />
  </g>
  <g
     id="g88"
     transform="matrix(2.7023061,0,0,2.7023061,-178.35219,-25.458071)">
    <line
       x1="314"
       y1="157"
       x2="436"
       y2="157"
       id="line90"
       style="stroke:#000000;stroke-opacity:1" />
    <polygon
       points="432,153 432,161 436,157 "
       id="polygon92"
       style="fill:#000000;stroke:none" />
  </g>
  <g
     id="g94"
     transform="matrix(2.7023061,0,0,2.7023061,-178.35219,-25.458071)">
    <line
       x1="314"
       y1="189"
       x2="436"
       y2="189"
       id="line96"
       style="stroke:#000000;stroke-dasharray:4, 4;stroke-opacity:1" />
    <path
       d="m 318,185 -4,4 4,4"
       id="path98"
       inkscape:connector-curvature="0"
       style="fill:none;stroke:#000000;stroke-opacity:1" />
  </g>
  <g
     id="g100"
     transform="matrix(2.7023061,0,0,2.7023061,-178.35219,-25.458071)">
    <line
       x1="314"
       y1="223"
       x2="559"
       y2="223"
       id="line102"
       style="stroke:#000000;stroke-opacity:1" />
    <polygon
       points="555,219 555,227 559,223 "
       id="polygon104"
       style="fill:#000000;stroke:none" />
  </g>
  <circle
     cx="12.160378"
     cy="132.62682"
     id="ellipse106"
     r="12.160378"
     style="fill:#000000;stroke:none" />
  <g
     id="g108"
     transform="matrix(2.7023061,0,0,2.7023061,-178.35219,-25.458071)"
     style="fill:#ffffff;fill-opacity:1">
    <rect
       x="154"
       y="75"
       width="10"
       height="37"
       id="rect110"
       style="fill:#ffffff;fill-opacity:1;stroke:#000000;stroke-width:1;stroke-opacity:1" />
  </g>
  <g
     id="g112"
     transform="matrix(2.7023061,0,0,2.7023061,-178.35219,-25.458071)">
    <path
       d="m 166,76 17,0 0,7 -17,0"
       id="path114"
       inkscape:connector-curvature="0"
       style="fill:none;stroke:#000000;stroke-opacity:1" />
    <polygon
       points="170,87 170,79 166,83 "
       id="polygon116"
       style="fill:#000000;stroke:none" />
  </g>
  <g
     id="g118"
     transform="matrix(2.7023061,0,0,2.7023061,-178.35219,-25.458071)">
    <path
       d="m 166,106 17,0 0,7 -17,0"
       id="path120"
       inkscape:connector-curvature="0"
       style="fill:none;stroke:#000000;stroke-dasharray:4, 4;stroke-opacity:1" />
    <path
       d="m 170,117 -4,-4 4,-4"
       id="path122"
       inkscape:connector-curvature="0"
       style="fill:none;stroke:#000000;stroke-opacity:1" />
  </g>
  <g
     id="g124"
     transform="matrix(2.7023061,0,0,2.7023061,-178.35219,-25.458071)">
    <text
       font-size="10"
       xml:space="preserve"
       x="74"
       y="49"
       id="text126"
       style="font-size:10px;font-family:Helvetica;fill:#000000">saveNeuralNet</text>
  </g>
  <g
     id="g128"
     transform="matrix(2.7023061,0,0,2.7023061,-178.35219,-25.458071)">
    <text
       font-size="10"
       xml:space="preserve"
       x="167"
       y="73"
       id="text130"
       style="font-size:10px;font-family:Helvetica;fill:#000000">buildNNJsonString</text>
  </g>
  <g
     id="g132"
     transform="matrix(2.7023061,0,0,2.7023061,-178.35219,-25.458071)">
    <text
       font-size="10"
       xml:space="preserve"
       x="167"
       y="102"
       id="text134"
       style="font-size:10px;font-family:Helvetica;fill:#000000">nnJsonString</text>
  </g>
  <g
     id="g136"
     transform="matrix(2.7023061,0,0,2.7023061,-178.35219,-25.458071)">
    <text
       font-size="10"
       xml:space="preserve"
       x="189"
       y="132"
       id="text138"
       style="font-size:10px;font-family:Helvetica;fill:#000000">save(nnJsonString)</text>
  </g>
  <g
     id="g140"
     transform="matrix(2.7023061,0,0,2.7023061,-178.35219,-25.458071)">
    <text
       font-size="10"
       xml:space="preserve"
       x="330"
       y="149"
       id="text142"
       style="font-size:10px;font-family:Helvetica;fill:#000000">parseJson(nnJson)</text>
  </g>
  <g
     id="g144"
     transform="matrix(2.7023061,0,0,2.7023061,-178.35219,-25.458071)">
    <text
       font-size="10"
       xml:space="preserve"
       x="341"
       y="181"
       id="text146"
       style="font-size:10px;font-family:Helvetica;fill:#000000">neuralNetEntity</text>
  </g>
  <g
     id="g148"
     transform="matrix(2.7023061,0,0,2.7023061,-178.35219,-25.458071)">
    <text
       font-size="10"
       xml:space="preserve"
       x="446"
       y="218"
       id="text150"
       style="font-size:10px;font-family:Helvetica;fill:#000000">save(neuralNetEntity)</text>
  </g>
</svg>
