<?xml version="1.0" encoding="UTF-8" standalone="no"?>
<!-- Created with Bouml (http://bouml.free.fr/) -->

<svg
   xmlns:dc="http://purl.org/dc/elements/1.1/"
   xmlns:cc="http://creativecommons.org/ns#"
   xmlns:rdf="http://www.w3.org/1999/02/22-rdf-syntax-ns#"
   xmlns:svg="http://www.w3.org/2000/svg"
   xmlns="http://www.w3.org/2000/svg"
   xmlns:sodipodi="http://sodipodi.sourceforge.net/DTD/sodipodi-0.dtd"
   xmlns:inkscape="http://www.inkscape.org/namespaces/inkscape"
   width="1207.5293"
   height="997.54614"
   version="1.1"
   id="svg2"
   inkscape:version="0.91 r13725"
   sodipodi:docname="gradientdescent2.svg">
  <metadata
     id="metadata126">
    <rdf:RDF>
      <cc:Work
         rdf:about="">
        <dc:format>image/svg+xml</dc:format>
        <dc:type
           rdf:resource="http://purl.org/dc/dcmitype/StillImage" />
        <dc:title></dc:title>
      </cc:Work>
    </rdf:RDF>
  </metadata>
  <defs
     id="defs124" />
  <sodipodi:namedview
     pagecolor="#ffffff"
     bordercolor="#666666"
     borderopacity="1"
     objecttolerance="10"
     gridtolerance="10"
     guidetolerance="10"
     inkscape:pageopacity="0"
     inkscape:pageshadow="2"
     inkscape:window-width="1280"
     inkscape:window-height="748"
     id="namedview122"
     showgrid="false"
     fit-margin-top="0"
     fit-margin-left="0"
     fit-margin-right="0"
     fit-margin-bottom="0"
     inkscape:zoom="0.37166415"
     inkscape:cx="309.35564"
     inkscape:cy="348.00596"
     inkscape:window-x="0"
     inkscape:window-y="24"
     inkscape:window-maximized="1"
     inkscape:current-layer="svg2" />
  <text
     font-size="10"
     xml:space="preserve"
     x="259.19559"
     y="346.04944"
     id="text4"
     style="font-size:29.96252441px;font-family:Helvetica;fill:#000000">[ for each node in Layer ]</text>
  <g
     id="g6"
     transform="matrix(2.9962525,0,0,2.8405284,-624.6989,-292.95699)">
    <line
       x1="284"
       y1="168"
       x2="284"
       y2="449"
       id="line8"
       style="stroke:#000000;stroke-dasharray:18, 6;stroke-opacity:1" />
  </g>
  <g
     id="g10"
     transform="matrix(2.9962525,0,0,2.8208408,-624.6989,-289.82488)">
    <line
       x1="499"
       y1="167"
       x2="499"
       y2="449"
       id="line12"
       style="stroke:#000000;stroke-dasharray:18, 6;stroke-opacity:1" />
  </g>
  <g
     id="g14"
     transform="matrix(2.9962525,0,0,2.9962525,-624.6989,-289.11864)">
    <polygon
       points="406,97 406,107 396,117 209,117 209,97 209,97 "
       id="polygon16"
       style="fill:#ffffff;stroke:#000000;stroke-opacity:1" />
    <rect
       x="208.99403"
       y="96.994041"
       width="402.01193"
       height="331.93002"
       id="rect18"
       style="fill:none;stroke:#000000;stroke-width:1.00125074;stroke-miterlimit:4;stroke-dasharray:none;stroke-opacity:1" />
    <text
       font-size="10"
       xml:space="preserve"
       x="303"
       y="113"
       id="text20"
       style="font-size:10px;font-family:Helvetica;text-anchor:middle;fill:#000000">sd backwardPropagationOutputLayer</text>
    <line
       x1="209"
       y1="117"
       x2="396"
       y2="117"
       id="line22"
       style="stroke:#000000;stroke-opacity:1" />
    <line
       x1="396"
       y1="117"
       x2="406"
       y2="107"
       id="line24"
       style="stroke:#000000;stroke-opacity:1" />
    <line
       x1="406"
       y1="107"
       x2="406"
       y2="97"
       id="line26"
       style="stroke:#000000;stroke-opacity:1" />
  </g>
  <g
     id="g28"
     transform="matrix(2.9962525,0,0,2.9962525,-624.6989,-287.11864)">
    <rect
       x="318"
       y="131"
       width="3"
       height="20"
       id="rect30"
       style="fill:#808080;stroke:none;stroke-opacity:1" />
    <rect
       x="250"
       y="148"
       width="71"
       height="3"
       id="rect32"
       style="fill:#808080;stroke:none;stroke-opacity:1" />
    <rect
       x="246"
       y="127"
       width="72"
       height="21"
       id="rect34"
       style="fill:#ffffc0;stroke:#000000;stroke-width:1;stroke-opacity:1" />
    <text
       font-size="10"
       xml:space="preserve"
       text-decoration="underline"
       x="282"
       y="141"
       id="text36"
       style="font-size:10px;font-family:Helvetica;text-decoration: underline;text-decoration-line: underline;text-anchor:middle;fill:#000000">:LayerTrainer</text>
  </g>
  <g
     id="g38"
     transform="matrix(2.9962525,0,0,2.9962525,-624.6989,-319.11864)"
     style="fill:#ffffff;fill-opacity:1">
    <rect
       x="494"
       y="238"
       width="10"
       height="166"
       id="rect40"
       style="fill:#ffffff;fill-opacity:1;stroke:#000000;stroke-width:1;stroke-opacity:1" />
  </g>
  <g
     id="g42"
     transform="matrix(2.9962525,0,0,2.9962525,-624.6989,-319.11864)"
     style="fill:#ffffff;fill-opacity:1">
    <rect
       x="279"
       y="186"
       width="10"
       height="242"
       id="rect44"
       style="fill:#ffffff;fill-opacity:1;stroke:#000000;stroke-width:1;stroke-opacity:1" />
  </g>
  <g
     id="g46"
     transform="matrix(2.9962525,0,0,2.9962525,-624.6989,-285.11864)">
    <rect
       x="532"
       y="130"
       width="3"
       height="20"
       id="rect48"
       style="fill:#808080;stroke:none;stroke-opacity:1" />
    <rect
       x="467"
       y="147"
       width="68"
       height="3"
       id="rect50"
       style="fill:#808080;stroke:none;stroke-opacity:1" />
    <rect
       x="463"
       y="126"
       width="69"
       height="21"
       id="rect52"
       style="fill:#ffffc0;stroke:#000000;stroke-width:1;stroke-opacity:1" />
    <text
       font-size="10"
       xml:space="preserve"
       text-decoration="underline"
       x="498"
       y="140"
       id="text54"
       style="font-size:10px;font-family:Helvetica;text-decoration: underline;text-decoration-line: underline;text-anchor:middle;fill:#000000">:NodeTrainer</text>
  </g>
  <g
     id="g56"
     transform="matrix(2.9962525,0,0,2.9962525,-624.6989,-319.11864)">
    <line
       x1="290"
       y1="245"
       x2="494"
       y2="245"
       id="line58"
       style="stroke:#000000;stroke-opacity:1" />
    <polygon
       points="490,241 490,249 494,245 "
       id="polygon60"
       style="fill:#000000;stroke:none" />
  </g>
  <g
     id="g62"
     transform="matrix(2.9962525,0,0,2.9962525,-624.6989,-319.11864)"
     style="fill:#ffffff;fill-opacity:1">
    <rect
       x="500"
       y="263"
       width="10"
       height="24"
       id="rect64"
       style="fill:#ffffff;fill-opacity:1;stroke:#000000;stroke-width:1;stroke-opacity:1" />
  </g>
  <g
     id="g66"
     transform="matrix(2.9962525,0,0,2.9962525,-624.6989,-319.11864)"
     style="fill:#ffffff;fill-opacity:1">
    <rect
       x="500"
       y="319"
       width="10"
       height="24"
       id="rect68"
       style="fill:#ffffff;fill-opacity:1;stroke:#000000;stroke-width:1;stroke-opacity:1" />
  </g>
  <g
     id="g70"
     transform="matrix(2.9962525,0,0,2.9962525,-624.6989,-319.11864)"
     style="fill:#ffffff;fill-opacity:1">
    <rect
       x="500"
       y="369"
       width="10"
       height="24"
       id="rect72"
       style="fill:#ffffff;fill-opacity:1;stroke:#000000;stroke-width:1;stroke-opacity:1" />
  </g>
  <g
     id="g74"
     transform="matrix(2.9962525,0,0,2.9962525,-624.6989,-319.11864)">
    <text
       font-size="10"
       xml:space="preserve"
       x="512"
       y="260"
       id="text76"
       style="font-size:10px;font-family:Helvetica;fill:#000000">calcError</text>
  </g>
  <g
     id="g78"
     transform="matrix(2.9962525,0,0,2.9962525,-624.6989,-319.11864)">
    <text
       font-size="10"
       xml:space="preserve"
       x="511"
       y="364"
       id="text80"
       style="font-size:10px;font-family:Helvetica;fill:#000000">updateWeights</text>
  </g>
  <g
     id="g82"
     transform="matrix(2.9962525,0,0,2.9962525,-624.6989,-319.11864)">
    <text
       font-size="10"
       xml:space="preserve"
       x="513"
       y="316"
       id="text84"
       style="font-size:10px;font-family:Helvetica;fill:#000000">updateBias</text>
  </g>
  <g
     id="g86"
     transform="matrix(2.9962525,0,0,2.9962525,-624.6989,-319.11864)">
    <text
       font-size="10"
       xml:space="preserve"
       x="292"
       y="237"
       id="text88"
       style="font-size:10px;font-family:Helvetica;fill:#000000">propagateBackward (node, expctNode)</text>
  </g>
  <g
     id="g90"
     transform="matrix(2.9962525,0,0,2.9962525,-624.6989,-319.11864)">
    <path
       d="m 512,320 17,0 0,7 -17,0"
       id="path92"
       inkscape:connector-curvature="0"
       style="fill:none;stroke:#000000;stroke-opacity:1" />
    <polygon
       points="516,331 516,323 512,327 "
       id="polygon94"
       style="fill:#000000;stroke:none" />
  </g>
  <g
     id="g96"
     transform="matrix(2.9962525,0,0,2.9962525,-624.6989,-319.11864)">
    <path
       d="m 512,264 17,0 0,7 -17,0"
       id="path98"
       inkscape:connector-curvature="0"
       style="fill:none;stroke:#000000;stroke-opacity:1" />
    <polygon
       points="516,275 516,267 512,271 "
       id="polygon100"
       style="fill:#000000;stroke:none" />
  </g>
  <g
     id="g102"
     transform="matrix(2.9962525,0,0,2.9962525,-624.6989,-319.11864)">
    <path
       d="m 512,370 17,0 0,7 -17,0"
       id="path104"
       inkscape:connector-curvature="0"
       style="fill:none;stroke:#000000;stroke-opacity:1" />
    <polygon
       points="516,381 516,373 512,377 "
       id="polygon106"
       style="fill:#000000;stroke:none" />
  </g>
  <g
     id="g108"
     transform="matrix(2.9962525,0,0,2.9962525,-624.6989,-319.11864)">
    <polygon
       points="248,224 248,204 248,204 284,204 284,214 274,224 "
       id="polygon110"
       style="fill:#ffffff;stroke:#000000;stroke-opacity:1" />
    <rect
       x="248"
       y="204"
       width="343"
       height="207"
       id="rect112"
       style="fill:none;stroke:#000000;stroke-width:1;stroke-opacity:1" />
    <text
       font-size="10"
       xml:space="preserve"
       x="261"
       y="218"
       id="text114"
       style="font-size:10px;font-family:Helvetica;text-anchor:middle;fill:#000000">loop</text>
    <line
       x1="248"
       y1="224"
       x2="274"
       y2="224"
       id="line116"
       style="stroke:#000000;stroke-opacity:1" />
    <line
       x1="274"
       y1="224"
       x2="284"
       y2="214"
       id="line118"
       style="stroke:#000000;stroke-opacity:1" />
    <line
       x1="284"
       y1="214"
       x2="284"
       y2="204"
       id="line120"
       style="stroke:#000000;stroke-opacity:1" />
  </g>
</svg>
