<?xml version="1.0" encoding="UTF-8" standalone="no"?>
<!-- Created with Bouml (http://bouml.free.fr/) -->

<svg
   xmlns:dc="http://purl.org/dc/elements/1.1/"
   xmlns:cc="http://creativecommons.org/ns#"
   xmlns:rdf="http://www.w3.org/1999/02/22-rdf-syntax-ns#"
   xmlns:svg="http://www.w3.org/2000/svg"
   xmlns="http://www.w3.org/2000/svg"
   xmlns:sodipodi="http://sodipodi.sourceforge.net/DTD/sodipodi-0.dtd"
   xmlns:inkscape="http://www.inkscape.org/namespaces/inkscape"
   width="1396.5739"
   height="1147.7979"
   version="1.1"
   id="svg2"
   inkscape:version="0.91 r13725"
   sodipodi:docname="gradientdescent3.svg">
  <metadata
     id="metadata126">
    <rdf:RDF>
      <cc:Work
         rdf:about="">
        <dc:format>image/svg+xml</dc:format>
        <dc:type
           rdf:resource="http://purl.org/dc/dcmitype/StillImage" />
        <dc:title></dc:title>
      </cc:Work>
    </rdf:RDF>
  </metadata>
  <defs
     id="defs124" />
  <sodipodi:namedview
     pagecolor="#ffffff"
     bordercolor="#666666"
     borderopacity="1"
     objecttolerance="10"
     gridtolerance="10"
     guidetolerance="10"
     inkscape:pageopacity="0"
     inkscape:pageshadow="2"
     inkscape:window-width="1280"
     inkscape:window-height="748"
     id="namedview122"
     showgrid="false"
     fit-margin-top="0"
     fit-margin-left="0"
     fit-margin-right="0"
     fit-margin-bottom="0"
     inkscape:zoom="0.13981043"
     inkscape:cx="2007.7594"
     inkscape:cy="279.3072"
     inkscape:window-x="0"
     inkscape:window-y="24"
     inkscape:window-maximized="1"
     inkscape:current-layer="svg2" />
  <g
     id="g4"
     transform="matrix(3.4631706,0,0,3.4631706,-676.5918,-240.23231)">
    <polygon
       points="196,70 361,70 361,80 351,90 196,90 196,70 "
       id="polygon6"
       style="fill:#ffffff;stroke:#000000;stroke-opacity:1" />
    <rect
       x="195.99274"
       y="69.992737"
       width="402.01453"
       height="330.17978"
       id="rect8"
       style="fill:none;stroke:#000000;stroke-width:1.25;stroke-miterlimit:4;stroke-dasharray:none;stroke-opacity:1" />
    <text
       font-size="10"
       xml:space="preserve"
       x="274"
       y="84"
       id="text10"
       style="font-size:10px;font-family:Helvetica;text-anchor:middle;fill:#000000">sd backwardPropagationLayer</text>
    <line
       x1="196"
       y1="90"
       x2="351"
       y2="90"
       id="line12"
       style="stroke:#000000;stroke-opacity:1" />
    <line
       x1="351"
       y1="90"
       x2="361"
       y2="80"
       id="line14"
       style="stroke:#000000;stroke-opacity:1" />
    <line
       x1="361"
       y1="80"
       x2="361"
       y2="70"
       id="line16"
       style="stroke:#000000;stroke-opacity:1" />
  </g>
  <text
     font-size="10"
     xml:space="preserve"
     x="300.02228"
     y="400.45428"
     id="text18"
     style="font-size:34.63170624px;font-family:Helvetica;fill:#000000">[ for each node in Layer ]</text>
  <g
     id="g20"
     transform="matrix(3.4631706,0,0,3.2881143,-676.5918,-250.53111)">
    <line
       x1="274"
       y1="139"
       x2="274"
       y2="422"
       id="line22"
       style="stroke:#000000;stroke-dasharray:18, 6;stroke-opacity:1" />
  </g>
  <g
     id="g24"
     transform="matrix(3.4631706,0,0,3.2438403,-676.5918,-244.15771)">
    <line
       x1="487"
       y1="140"
       x2="487"
       y2="422"
       id="line26"
       style="stroke:#000000;stroke-dasharray:18, 6;stroke-opacity:1" />
  </g>
  <g
     id="g28"
     transform="matrix(3.4631706,0,0,3.4631706,-676.5918,-240.23231)">
    <rect
       x="308"
       y="102"
       width="3"
       height="20"
       id="rect30"
       style="fill:#808080;stroke:none;stroke-opacity:1" />
    <rect
       x="240"
       y="119"
       width="71"
       height="3"
       id="rect32"
       style="fill:#808080;stroke:none;stroke-opacity:1" />
    <rect
       x="236"
       y="98"
       width="72"
       height="21"
       id="rect34"
       style="fill:#ffffc0;stroke:#000000;stroke-width:1;stroke-opacity:1" />
    <text
       font-size="10"
       xml:space="preserve"
       text-decoration="underline"
       x="272"
       y="112"
       id="text36"
       style="font-size:10px;font-family:Helvetica;text-decoration: underline;text-decoration-line: underline;text-anchor:middle;fill:#000000">:LayerTrainer</text>
  </g>
  <g
     id="g38"
     transform="matrix(3.4631706,0,0,3.4631706,-676.5918,-274.86401)"
     style="fill:#ffffff;fill-opacity:1">
    <rect
       x="269"
       y="159"
       width="10"
       height="242"
       id="rect40"
       style="fill:#ffffff;fill-opacity:1;stroke:#000000;stroke-width:1;stroke-opacity:1" />
  </g>
  <g
     id="g42"
     transform="matrix(3.4631706,0,0,3.4631706,-676.5918,-240.23231)">
    <rect
       x="520"
       y="103"
       width="3"
       height="20"
       id="rect44"
       style="fill:#808080;stroke:none;stroke-opacity:1" />
    <rect
       x="455"
       y="120"
       width="68"
       height="3"
       id="rect46"
       style="fill:#808080;stroke:none;stroke-opacity:1" />
    <rect
       x="451"
       y="99"
       width="69"
       height="21"
       id="rect48"
       style="fill:#ffffc0;stroke:#000000;stroke-width:1;stroke-opacity:1" />
    <text
       font-size="10"
       xml:space="preserve"
       text-decoration="underline"
       x="486"
       y="113"
       id="text50"
       style="font-size:10px;font-family:Helvetica;text-decoration: underline;text-decoration-line: underline;text-anchor:middle;fill:#000000">:NodeTrainer</text>
  </g>
  <g
     id="g52"
     transform="matrix(3.4631706,0,0,3.4631706,-676.5918,-274.86401)"
     style="fill:#ffffff;fill-opacity:1">
    <rect
       x="482"
       y="211"
       width="10"
       height="166"
       id="rect54"
       style="fill:#ffffff;fill-opacity:1;stroke:#000000;stroke-width:1;stroke-opacity:1" />
  </g>
  <g
     id="g56"
     transform="matrix(3.4631706,0,0,3.4631706,-676.5918,-274.86401)">
    <line
       x1="280"
       y1="218"
       x2="482"
       y2="218"
       id="line58"
       style="stroke:#000000;stroke-opacity:1" />
    <polygon
       points="478,214 478,222 482,218 "
       id="polygon60"
       style="fill:#000000;stroke:none" />
  </g>
  <g
     id="g62"
     transform="matrix(3.4631706,0,0,3.4631706,-676.5918,-274.86401)"
     style="fill:#ffffff;fill-opacity:1">
    <rect
       x="488"
       y="236"
       width="10"
       height="24"
       id="rect64"
       style="fill:#ffffff;fill-opacity:1;stroke:#000000;stroke-width:1;stroke-opacity:1" />
  </g>
  <g
     id="g66"
     transform="matrix(3.4631706,0,0,3.4631706,-676.5918,-274.86401)"
     style="fill:#ffffff;fill-opacity:1">
    <rect
       x="488"
       y="292"
       width="10"
       height="24"
       id="rect68"
       style="fill:#ffffff;fill-opacity:1;stroke:#000000;stroke-width:1;stroke-opacity:1" />
  </g>
  <g
     id="g70"
     transform="matrix(3.4631706,0,0,3.4631706,-676.5918,-274.86401)"
     style="fill:#ffffff;fill-opacity:1">
    <rect
       x="488"
       y="342"
       width="10"
       height="24"
       id="rect72"
       style="fill:#ffffff;fill-opacity:1;stroke:#000000;stroke-width:1;stroke-opacity:1" />
  </g>
  <g
     id="g74"
     transform="matrix(3.4631706,0,0,3.4631706,-676.5918,-274.86401)">
    <text
       font-size="10"
       xml:space="preserve"
       x="499"
       y="233"
       id="text76"
       style="font-size:10px;font-family:Helvetica;fill:#000000">calcError</text>
  </g>
  <g
     id="g78"
     transform="matrix(3.4631706,0,0,3.4631706,-676.5918,-274.86401)">
    <text
       font-size="10"
       xml:space="preserve"
       x="498"
       y="337"
       id="text80"
       style="font-size:10px;font-family:Helvetica;fill:#000000">updateWeights</text>
  </g>
  <g
     id="g82"
     transform="matrix(3.4631706,0,0,3.4631706,-676.5918,-274.86401)">
    <text
       font-size="10"
       xml:space="preserve"
       x="500"
       y="289"
       id="text84"
       style="font-size:10px;font-family:Helvetica;fill:#000000">updateBias</text>
  </g>
  <g
     id="g86"
     transform="matrix(3.4631706,0,0,3.4631706,-676.5918,-274.86401)">
    <text
       font-size="10"
       xml:space="preserve"
       x="281"
       y="210"
       id="text88"
       style="font-size:10px;font-family:Helvetica;fill:#000000">propagateBackward (node)</text>
  </g>
  <g
     id="g90"
     transform="matrix(3.4631706,0,0,3.4631706,-676.5918,-274.86401)">
    <path
       d="m 500,237 17,0 0,7 -17,0"
       id="path92"
       inkscape:connector-curvature="0"
       style="fill:none;stroke:#000000;stroke-opacity:1" />
    <polygon
       points="504,248 504,240 500,244 "
       id="polygon94"
       style="fill:#000000;stroke:none" />
  </g>
  <g
     id="g96"
     transform="matrix(3.4631706,0,0,3.4631706,-676.5918,-274.86401)">
    <path
       d="m 500,293 17,0 0,7 -17,0"
       id="path98"
       inkscape:connector-curvature="0"
       style="fill:none;stroke:#000000;stroke-opacity:1" />
    <polygon
       points="504,304 504,296 500,300 "
       id="polygon100"
       style="fill:#000000;stroke:none" />
  </g>
  <g
     id="g102"
     transform="matrix(3.4631706,0,0,3.4631706,-676.5918,-274.86401)">
    <path
       d="m 500,343 17,0 0,7 -17,0"
       id="path104"
       inkscape:connector-curvature="0"
       style="fill:none;stroke:#000000;stroke-opacity:1" />
    <polygon
       points="504,354 504,346 500,350 "
       id="polygon106"
       style="fill:#000000;stroke:none" />
  </g>
  <g
     id="g108"
     transform="matrix(3.4631706,0,0,3.4631706,-676.5918,-274.86401)">
    <polygon
       points="271,178 271,188 261,198 235,198 235,178 235,178 "
       id="polygon110"
       style="fill:#ffffff;stroke:#000000;stroke-opacity:1" />
    <rect
       x="235"
       y="178"
       width="343"
       height="207"
       id="rect112"
       style="fill:none;stroke:#000000;stroke-width:1;stroke-opacity:1" />
    <text
       font-size="10"
       xml:space="preserve"
       x="248"
       y="192"
       id="text114"
       style="font-size:10px;font-family:Helvetica;text-anchor:middle;fill:#000000">loop</text>
    <line
       x1="235"
       y1="198"
       x2="261"
       y2="198"
       id="line116"
       style="stroke:#000000;stroke-opacity:1" />
    <line
       x1="261"
       y1="198"
       x2="271"
       y2="188"
       id="line118"
       style="stroke:#000000;stroke-opacity:1" />
    <line
       x1="271"
       y1="188"
       x2="271"
       y2="178"
       id="line120"
       style="stroke:#000000;stroke-opacity:1" />
  </g>
</svg>
