<?xml version="1.0" encoding="UTF-8" standalone="no"?>
<!-- Created with Bouml (http://bouml.free.fr/) -->

<svg
   xmlns:dc="http://purl.org/dc/elements/1.1/"
   xmlns:cc="http://creativecommons.org/ns#"
   xmlns:rdf="http://www.w3.org/1999/02/22-rdf-syntax-ns#"
   xmlns:svg="http://www.w3.org/2000/svg"
   xmlns="http://www.w3.org/2000/svg"
   xmlns:sodipodi="http://sodipodi.sourceforge.net/DTD/sodipodi-0.dtd"
   xmlns:inkscape="http://www.inkscape.org/namespaces/inkscape"
   width="2289.3264"
   height="1813.985"
   version="1.1"
   id="svg2"
   inkscape:version="0.91 r13725"
   sodipodi:docname="gradientdescent1.svg">
  <metadata
     id="metadata172">
    <rdf:RDF>
      <cc:Work
         rdf:about="">
        <dc:format>image/svg+xml</dc:format>
        <dc:type
           rdf:resource="http://purl.org/dc/dcmitype/StillImage" />
        <dc:title />
      </cc:Work>
    </rdf:RDF>
  </metadata>
  <defs
     id="defs170" />
  <sodipodi:namedview
     pagecolor="#ffffff"
     bordercolor="#666666"
     borderopacity="1"
     objecttolerance="10"
     gridtolerance="10"
     guidetolerance="10"
     inkscape:pageopacity="0"
     inkscape:pageshadow="2"
     inkscape:window-width="1280"
     inkscape:window-height="748"
     id="namedview168"
     showgrid="false"
     fit-margin-top="0"
     fit-margin-left="0"
     fit-margin-right="0"
     fit-margin-bottom="0"
     inkscape:zoom="0.28095238"
     inkscape:cx="1390.3964"
     inkscape:cy="1105.8148"
     inkscape:window-x="0"
     inkscape:window-y="24"
     inkscape:window-maximized="1"
     inkscape:current-layer="svg2" />
  <g
     id="g34"
     transform="matrix(5.1213799,0,0,4.7370411,-355.90122,-194.11395)">
    <line
       x1="209"
       y1="88"
       x2="209"
       y2="420"
       id="line36"
       style="stroke:#000000;stroke-dasharray:18, 6;stroke-opacity:1" />
  </g>
  <g
     id="g4"
     transform="matrix(5.1215356,0,0,4.9834752,-355.94672,-221.76465)">
    <polygon
       points="191,49 186,54 70,54 70,45 70,45 191,45 "
       id="polygon6"
       style="fill:#ffffff;stroke:#000000;stroke-opacity:1" />
    <rect
       x="70"
       y="45"
       width="446"
       height="363"
       id="rect8"
       style="fill:none;stroke:#000000;stroke-width:1;stroke-opacity:1" />
    <text
       font-size="6"
       xml:space="preserve"
       x="128"
       y="53"
       id="text10"
       style="font-size:6px;font-family:Helvetica;text-anchor:middle;fill:#000000">sd neural net backward propagation</text>
    <line
       x1="70"
       y1="54"
       x2="186"
       y2="54"
       id="line12"
       style="stroke:#000000;stroke-opacity:1" />
    <line
       x1="186"
       y1="54"
       x2="191"
       y2="49"
       id="line14"
       style="stroke:#000000;stroke-opacity:1" />
    <line
       x1="191"
       y1="49"
       x2="191"
       y2="45"
       id="line16"
       style="stroke:#000000;stroke-opacity:1" />
  </g>
  <text
     font-size="6"
     xml:space="preserve"
     x="740.0741"
     y="924.37476"
     id="text18"
     style="font-size:30.72827911px;font-family:Helvetica;fill:#000000">[ for each hLayer in hiddenLayer ]</text>
  <g
     id="g20"
     transform="matrix(5.1213799,0,0,5.1213799,-355.90122,-197.20745)">
    <rect
       x="239"
       y="62"
       width="2"
       height="13"
       id="rect22"
       style="fill:#808080;stroke:none;stroke-opacity:1" />
    <rect
       x="179"
       y="73"
       width="62"
       height="2"
       id="rect24"
       style="fill:#808080;stroke:none;stroke-opacity:1" />
    <rect
       x="176"
       y="59"
       width="63"
       height="14"
       id="rect26"
       style="fill:#ffffc0;stroke:#000000;stroke-width:1;stroke-opacity:1" />
    <text
       font-size="6"
       xml:space="preserve"
       text-decoration="underline"
       x="208"
       y="70"
       id="text28"
       style="font-size:6px;font-family:Helvetica;text-decoration: underline;text-decoration-line: underline;text-anchor:middle;fill:#000000">:NeuralNetTrainer</text>
  </g>
  <g
     id="g30"
     transform="matrix(5.1213799,0,0,4.6409564,-355.90122,-185.65845)">
    <line
       x1="405"
       y1="88"
       x2="405"
       y2="420"
       id="line32"
       style="stroke:#000000;stroke-dasharray:18, 6;stroke-opacity:1" />
  </g>
  <g
     id="g38"
     transform="matrix(5.1213799,0,0,5.1213799,-355.90122,-197.20745)">
    <rect
       x="430"
       y="62"
       width="2"
       height="13"
       id="rect40"
       style="fill:#808080;stroke:none;stroke-opacity:1" />
    <rect
       x="383"
       y="73"
       width="49"
       height="2"
       id="rect42"
       style="fill:#808080;stroke:none;stroke-opacity:1" />
    <rect
       x="380"
       y="59"
       width="50"
       height="14"
       id="rect44"
       style="fill:#ffffc0;stroke:#000000;stroke-width:1;stroke-opacity:1" />
    <text
       font-size="6"
       xml:space="preserve"
       text-decoration="underline"
       x="405"
       y="70"
       id="text46"
       style="font-size:6px;font-family:Helvetica;text-decoration: underline;text-decoration-line: underline;text-anchor:middle;fill:#000000">:LayerTrainer</text>
  </g>
  <g
     id="g48"
     transform="matrix(5.1213799,0,0,5.1213799,-355.90122,-227.93575)"
     style="fill:#ffffff;fill-opacity:1">
    <rect
       x="402"
       y="126"
       width="7"
       height="82"
       id="rect50"
       style="fill:#ffffff;fill-opacity:1;stroke:#000000;stroke-width:1;stroke-opacity:1" />
  </g>
  <g
     id="g52"
     transform="matrix(5.1213799,0,0,5.1213799,-366.14392,-227.93575)"
     style="fill:#ffffff;fill-opacity:1">
    <rect
       x="403"
       y="237"
       width="7"
       height="63"
       id="rect54"
       style="fill:#ffffff;fill-opacity:1;stroke:#000000;stroke-width:1;stroke-opacity:1" />
  </g>
  <g
     id="g56"
     transform="matrix(5.1213799,0,0,5.1213799,-355.90122,-227.93575)"
     style="fill:#ffffff;fill-opacity:1">
    <rect
       x="402"
       y="328"
       width="7"
       height="59"
       id="rect58"
       style="fill:#ffffff;fill-opacity:1;stroke:#000000;stroke-width:1;stroke-opacity:1" />
  </g>
  <g
     id="g64"
     transform="matrix(5.1213799,0,0,5.1213799,-355.90122,-227.93575)">
    <line
       x1="214"
       y1="334"
       x2="402"
       y2="334"
       id="line66"
       style="stroke:#000000;stroke-opacity:1" />
    <polygon
       points="398,330 398,338 402,334 "
       id="polygon68"
       style="fill:#000000;stroke:none" />
  </g>
  <g
     id="g70"
     transform="matrix(5.1213799,0,0,5.1213799,-355.90122,-227.93575)">
    <text
       font-size="6"
       xml:space="preserve"
       x="404"
       y="279"
       id="text76"
       style="font-size:6px;font-family:Helvetica;text-anchor:middle;fill:#000000">backwardPropagationLayer(hLayer)</text>
  </g>
  <g
     id="g86"
     transform="matrix(5.1213799,0,0,5.1213799,-355.90122,-227.93575)">
    <line
       x1="214"
       y1="135"
       x2="402"
       y2="135"
       id="line88"
       style="stroke:#000000;stroke-opacity:1" />
    <polygon
       points="398,131 398,139 402,135 "
       id="polygon90"
       style="fill:#000000;stroke:none" />
  </g>
  <circle
     cx="97.340935"
     cy="358.46225"
     id="ellipse92"
     r="23.046209"
     style="fill:#000000;stroke:none" />
  <g
     id="g94"
     transform="matrix(5.1213799,0,0,5.1213799,-355.90122,-227.93575)">
    <line
       x1="93"
       y1="113"
       x2="206"
       y2="113"
       id="line96"
       style="stroke:#000000;stroke-opacity:1" />
    <polygon
       points="202,109 202,117 206,113 "
       id="polygon98"
       style="fill:#000000;stroke:none" />
  </g>
  <g
     id="g100"
     transform="matrix(5.1213799,0,0,5.1213799,-355.90122,-227.93575)">
    <polygon
       points="328,150 328,154 323,159 313,159 313,150 313,150 "
       id="polygon102"
       style="fill:#ffffff;stroke:#000000;stroke-opacity:1" />
    <rect
       x="313"
       y="150"
       width="195"
       height="33"
       id="rect104"
       style="fill:none;stroke:#000000;stroke-width:1;stroke-opacity:1" />
    <text
       font-size="6"
       xml:space="preserve"
       x="411"
       y="171"
       id="text106"
       style="font-size:6px;font-family:Helvetica;text-anchor:middle;fill:#000000">backwardPropagationOutputLayer(oLayer, expctLayer)</text>
    <text
       font-size="6"
       xml:space="preserve"
       x="318"
       y="156.43793"
       id="text108"
       style="font-size:6px;font-family:Helvetica;text-anchor:middle;fill:#000000">ref</text>
    <line
       x1="313"
       y1="159"
       x2="323"
       y2="159"
       id="line110"
       style="stroke:#000000;stroke-opacity:1" />
    <line
       x1="323"
       y1="159"
       x2="328"
       y2="154"
       id="line112"
       style="stroke:#000000;stroke-opacity:1" />
    <line
       x1="328"
       y1="154"
       x2="328"
       y2="150"
       id="line114"
       style="stroke:#000000;stroke-opacity:1" />
  </g>
  <g
     id="g116"
     transform="matrix(5.1213799,0,0,5.1213799,-355.90122,-227.93575)">
    <text
       font-size="6"
       xml:space="preserve"
       x="405"
       y="365"
       id="text122"
       style="font-size:6px;font-family:Helvetica;text-anchor:middle;fill:#000000">backwardPropagationLayer(iLayer)</text>
  </g>
  <g
     id="g132"
     transform="matrix(5.1213799,0,0,5.1213799,-355.90122,-227.93575)">
    <text
       font-size="6"
       xml:space="preserve"
       x="81"
       y="101"
       id="text134"
       style="font-size:6px;font-family:Helvetica;fill:#000000">propagateBackward (net, expctLayer)</text>
  </g>
  <g
     id="g136"
     transform="matrix(5.1213799,0,0,5.1213799,-355.90122,-227.93575)">
    <text
       font-size="6"
       xml:space="preserve"
       x="223"
       y="127"
       id="text138"
       style="font-size:6px;font-family:Helvetica;fill:#000000">propagateOutputLayerBackward(oLayer, expctLayer)</text>
  </g>
  <g
     id="g140"
     transform="matrix(5.1213799,0,0,5.1213799,-355.90122,-227.93575)">
    <text
       font-size="6"
       xml:space="preserve"
       x="269"
       y="239"
       id="text142"
       style="font-size:6px;font-family:Helvetica;fill:#000000">propagateBackward(hLayer)</text>
  </g>
  <g
     id="g144"
     transform="matrix(5.1213799,0,0,5.1213799,-355.90122,-227.93575)">
    <text
       font-size="6"
       xml:space="preserve"
       x="267"
       y="329"
       id="text146"
       style="font-size:6px;font-family:Helvetica;fill:#000000">propagateBackwards (iLayer)</text>
  </g>
  <g
     id="g148"
     transform="matrix(5.0611,0,0,5.1213799,-343.00132,-227.93575)">
    <line
       x1="214"
       y1="244"
       x2="403"
       y2="244"
       id="line150"
       style="stroke:#000000;stroke-opacity:1" />
    <polygon
       points="399,248 403,244 399,240 "
       id="polygon152"
       style="fill:#000000;stroke:none" />
  </g>
  <g
     id="g60"
     transform="matrix(5.1317871,0,0,4.9666223,-358.08152,-211.41305)"
     style="fill:#ffffff;fill-opacity:1">
    <rect
       x="206"
       y="107"
       width="7"
       height="294"
       id="rect62"
       style="fill:#ffffff;fill-opacity:1;stroke:#000000;stroke-width:1;stroke-opacity:1" />
  </g>
  <g
     id="g154"
     transform="matrix(5.1213799,0,0,5.1213799,-355.90122,-227.93575)">
    <polygon
       points="201,215 201,219 196,224 180,224 180,215 180,215 "
       id="polygon156"
       style="fill:#ffffff;stroke:#000000;stroke-opacity:1" />
    <rect
       x="180"
       y="215"
       width="304"
       height="91"
       id="rect158"
       style="fill:none;stroke:#000000;stroke-width:1;stroke-opacity:1" />
    <text
       font-size="6"
       xml:space="preserve"
       x="188"
       y="223"
       id="text160"
       style="font-size:6px;font-family:Helvetica;text-anchor:middle;fill:#000000">loop</text>
    <line
       x1="180"
       y1="224"
       x2="196"
       y2="224"
       id="line162"
       style="stroke:#000000;stroke-opacity:1" />
    <line
       x1="196"
       y1="224"
       x2="201"
       y2="219"
       id="line164"
       style="stroke:#000000;stroke-opacity:1" />
    <line
       x1="201"
       y1="219"
       x2="201"
       y2="215"
       id="line166"
       style="stroke:#000000;stroke-opacity:1" />
  </g>
  <rect
     x="1454.3447"
     y="1097.4082"
     width="531.90906"
     height="170.37419"
     id="rect104-9"
     style="fill:none;stroke:#000000;stroke-width:5;stroke-opacity:1;stroke-miterlimit:4;stroke-dasharray:none" />
  <text
     font-size="6"
     xml:space="preserve"
     x="1480.636"
     y="1131.0636"
     id="text108-1"
     style="font-size:30.72827911px;font-family:Helvetica;text-anchor:middle;fill:#000000">ref</text>
  <line
     x1="1455.0291"
     y1="1144.1848"
     x2="1506.2428"
     y2="1144.1848"
     id="line110-2"
     style="stroke:#000000;stroke-width:5.12137985;stroke-opacity:1" />
  <line
     x1="1506.2428"
     y1="1144.1848"
     x2="1531.8497"
     y2="1118.578"
     id="line112-7"
     style="stroke:#000000;stroke-width:5.12137985;stroke-opacity:1" />
  <line
     x1="1531.8497"
     y1="1118.578"
     x2="1531.8497"
     y2="1098.0925"
     id="line114-0"
     style="stroke:#000000;stroke-width:5.12137985;stroke-opacity:1" />
  <rect
     x="1455.9752"
     y="1542.4227"
     width="524.38495"
     height="170.40054"
     id="rect104-93"
     style="fill:none;stroke:#000000;stroke-width:5;stroke-opacity:1;stroke-miterlimit:4;stroke-dasharray:none" />
  <text
     font-size="6"
     xml:space="preserve"
     x="1482.2795"
     y="1576.0913"
     id="text108-6"
     style="font-size:30.72827911px;font-family:Helvetica;text-anchor:middle;fill:#000000">ref</text>
  <line
     x1="1456.6727"
     y1="1589.2126"
     x2="1507.8865"
     y2="1589.2126"
     id="line110-0"
     style="stroke:#000000;stroke-width:5.12137985;stroke-opacity:1" />
  <line
     x1="1507.8865"
     y1="1589.2126"
     x2="1533.4934"
     y2="1563.6057"
     id="line112-6"
     style="stroke:#000000;stroke-width:5.12137985;stroke-opacity:1" />
  <line
     x1="1533.4934"
     y1="1563.6057"
     x2="1533.4934"
     y2="1543.1202"
     id="line114-2"
     style="stroke:#000000;stroke-width:5.12137985;stroke-opacity:1" />
</svg>
