<?xml version="1.0" encoding="UTF-8" standalone="no"?>
<!-- Created with Bouml (http://bouml.free.fr/) -->

<svg
   xmlns:dc="http://purl.org/dc/elements/1.1/"
   xmlns:cc="http://creativecommons.org/ns#"
   xmlns:rdf="http://www.w3.org/1999/02/22-rdf-syntax-ns#"
   xmlns:svg="http://www.w3.org/2000/svg"
   xmlns="http://www.w3.org/2000/svg"
   xmlns:sodipodi="http://sodipodi.sourceforge.net/DTD/sodipodi-0.dtd"
   xmlns:inkscape="http://www.inkscape.org/namespaces/inkscape"
   width="2490.9575"
   height="1802.8739"
   version="1.1"
   id="svg2"
   inkscape:version="0.91 r13725"
   sodipodi:docname="trainDetailed1.svg">
  <metadata
     id="metadata206">
    <rdf:RDF>
      <cc:Work
         rdf:about="">
        <dc:format>image/svg+xml</dc:format>
        <dc:type
           rdf:resource="http://purl.org/dc/dcmitype/StillImage" />
        <dc:title></dc:title>
      </cc:Work>
    </rdf:RDF>
  </metadata>
  <defs
     id="defs204" />
  <sodipodi:namedview
     pagecolor="#ffffff"
     bordercolor="#666666"
     borderopacity="1"
     objecttolerance="10"
     gridtolerance="10"
     guidetolerance="10"
     inkscape:pageopacity="0"
     inkscape:pageshadow="2"
     inkscape:window-width="1280"
     inkscape:window-height="748"
     id="namedview202"
     showgrid="false"
     fit-margin-top="0"
     fit-margin-left="0"
     fit-margin-right="0"
     fit-margin-bottom="0"
     inkscape:zoom="0.37942123"
     inkscape:cx="1313.0406"
     inkscape:cy="1677.707"
     inkscape:window-x="0"
     inkscape:window-y="24"
     inkscape:window-maximized="1"
     inkscape:current-layer="svg2" />
  <g
     id="g4"
     transform="matrix(3.1491247,0,0,3.1491247,-111.79393,-155.88167)">
    <polygon
       points="102,50 102,60 92,70 36,70 36,50 36,50 "
       id="polygon6"
       style="fill:#ffffff;stroke:#000000;stroke-opacity:1" />
    <rect
       x="36"
       y="50"
       width="790"
       height="560"
       id="rect8"
       style="fill:none;stroke:#000000;stroke-width:1;stroke-opacity:1" />
    <text
       font-size="10"
       xml:space="preserve"
       x="64"
       y="66"
       id="text10"
       style="font-size:10px;font-family:Helvetica;text-anchor:middle;fill:#000000">sd training</text>
    <line
       x1="36"
       y1="70"
       x2="92"
       y2="70"
       id="line12"
       style="stroke:#000000;stroke-opacity:1" />
    <line
       x1="92"
       y1="70"
       x2="102"
       y2="60"
       id="line14"
       style="stroke:#000000;stroke-opacity:1" />
    <line
       x1="102"
       y1="60"
       x2="102"
       y2="50"
       id="line16"
       style="stroke:#000000;stroke-opacity:1" />
  </g>
  <g
     id="g18"
     transform="matrix(3.1491247,0,0,3.1491247,-111.79393,-155.88167)">
    <rect
       x="734"
       y="96"
       width="3"
       height="20"
       id="rect20"
       style="fill:#808080;stroke:none;stroke-opacity:1" />
    <rect
       x="647"
       y="113"
       width="90"
       height="3"
       id="rect22"
       style="fill:#808080;stroke:none;stroke-opacity:1" />
    <rect
       x="643"
       y="92"
       width="91"
       height="21"
       id="rect24"
       style="fill:#ffffc0;stroke:#000000;stroke-width:1;stroke-opacity:1" />
    <text
       font-size="10"
       xml:space="preserve"
       text-decoration="underline"
       x="689"
       y="108"
       id="text26"
       style="font-size:10px;font-family:Helvetica;text-decoration: underline;text-decoration-line: underline;text-anchor:middle;fill:#000000">:NeuralNetTrainer</text>
  </g>
  <g
     id="g28"
     transform="matrix(3.1491247,0,0,3.1491247,-111.79393,-155.88167)">
    <rect
       x="203"
       y="95"
       width="3"
       height="20"
       id="rect30"
       style="fill:#808080;stroke:none;stroke-opacity:1" />
    <rect
       x="124"
       y="112"
       width="82"
       height="3"
       id="rect32"
       style="fill:#808080;stroke:none;stroke-opacity:1" />
    <rect
       x="120"
       y="91"
       width="83"
       height="21"
       id="rect34"
       style="fill:#ffffc0;stroke:#000000;stroke-width:1;stroke-opacity:1" />
    <text
       font-size="10"
       xml:space="preserve"
       text-decoration="underline"
       x="162"
       y="107"
       id="text36"
       style="font-size:10px;font-family:Helvetica;text-decoration: underline;text-decoration-line: underline;text-anchor:middle;fill:#000000">:TrainingWorker</text>
  </g>
  <g
     id="g38"
     transform="matrix(3.1491247,0,0,3.1491247,-111.79393,-155.88167)">
    <rect
       x="374"
       y="96"
       width="3"
       height="20"
       id="rect40"
       style="fill:#808080;stroke:none;stroke-opacity:1" />
    <rect
       x="236"
       y="113"
       width="141"
       height="3"
       id="rect42"
       style="fill:#808080;stroke:none;stroke-opacity:1" />
    <rect
       x="232"
       y="92"
       width="142"
       height="21"
       id="rect44"
       style="fill:#ffffc0;stroke:#000000;stroke-width:1;stroke-opacity:1" />
    <text
       font-size="10"
       xml:space="preserve"
       text-decoration="underline"
       x="303"
       y="108"
       id="text46"
       style="font-size:10px;font-family:Helvetica;text-decoration: underline;text-decoration-line: underline;text-anchor:middle;fill:#000000">adapter:ImageLayerAdapter</text>
  </g>
  <g
     id="g48"
     transform="matrix(3.1491247,0,0,3.1491247,-111.79393,-155.88167)">
    <rect
       x="479"
       y="96"
       width="3"
       height="20"
       id="rect50"
       style="fill:#808080;stroke:none;stroke-opacity:1" />
    <rect
       x="391"
       y="113"
       width="91"
       height="3"
       id="rect52"
       style="fill:#808080;stroke:none;stroke-opacity:1" />
    <rect
       x="387"
       y="92"
       width="92"
       height="21"
       id="rect54"
       style="fill:#ffffc0;stroke:#000000;stroke-width:1;stroke-opacity:1" />
    <text
       font-size="10"
       xml:space="preserve"
       text-decoration="underline"
       x="433"
       y="108"
       id="text56"
       style="font-size:10px;font-family:Helvetica;text-decoration: underline;text-decoration-line: underline;text-anchor:middle;fill:#000000">:NeuralNetWorker</text>
  </g>
  <circle
     cx="148.00885"
     cy="359.00018"
     id="ellipse58"
     r="14.171061"
     style="fill:#000000;stroke:none" />
  <g
     id="g60"
     transform="matrix(3.1491247,0,0,3.1491247,-111.79393,-155.88167)">
    <line
       x1="87"
       y1="162"
       x2="158"
       y2="162"
       id="line62"
       style="stroke:#000000;stroke-opacity:1" />
    <polygon
       points="154,158 154,166 158,162 "
       id="polygon64"
       style="fill:#000000;stroke:none" />
  </g>
  <g
     id="g66"
     transform="matrix(3.1491247,0,0,3.1491247,-111.79393,-155.88167)">
    <rect
       x="590"
       y="96"
       width="3"
       height="20"
       id="rect68"
       style="fill:#808080;stroke:none;stroke-opacity:1" />
    <rect
       x="516"
       y="113"
       width="77"
       height="3"
       id="rect70"
       style="fill:#808080;stroke:none;stroke-opacity:1" />
    <rect
       x="512"
       y="92"
       width="78"
       height="21"
       id="rect72"
       style="fill:#ffffc0;stroke:#000000;stroke-width:1;stroke-opacity:1" />
    <text
       font-size="10"
       xml:space="preserve"
       text-decoration="underline"
       x="551"
       y="108"
       id="text74"
       style="font-size:10px;font-family:Helvetica;text-decoration: underline;text-decoration-line: underline;text-anchor:middle;fill:#000000">:DigitConverter</text>
  </g>
  <g
     id="g76"
     transform="matrix(3.1491247,0,0,3.1491247,-111.79393,-155.88167)">
    <text
       font-size="10"
       xml:space="preserve"
       x="62"
       y="149"
       id="text78"
       style="font-size:10px;font-family:Helvetica;fill:#000000">train (trainingData)</text>
  </g>
  <g
     id="g80"
     transform="matrix(3.1491247,0,0,3.1491247,-111.79393,-155.88167)">
    <text
       font-size="10"
       xml:space="preserve"
       x="323"
       y="440"
       id="text82"
       style="font-size:10px;font-family:Helvetica;fill:#000000">expectedLayer</text>
  </g>
  <g
     id="g84"
     transform="matrix(3.1491247,0,0,3.1491247,-111.79393,-155.88167)">
    <text
       font-size="10"
       xml:space="preserve"
       x="172"
       y="296"
       id="text86"
       style="font-size:10px;font-family:Helvetica;fill:#000000">inject (img, net.inputLayer)</text>
  </g>
  <g
     id="g88"
     transform="matrix(3.1491247,0,0,3.1491247,-111.79393,-155.88167)">
    <text
       font-size="10"
       xml:space="preserve"
       x="327"
       y="404"
       id="text90"
       style="font-size:10px;font-family:Helvetica;fill:#000000">convert (digit)</text>
  </g>
  <g
     id="g92"
     transform="matrix(3.1491247,0,0,3.1491247,-111.79393,-155.88167)">
    <text
       font-size="10"
       xml:space="preserve"
       x="312"
       y="477"
       id="text94"
       style="font-size:10px;font-family:Helvetica;fill:#000000">propagateBackward (neuralNet, expectedLayer)</text>
  </g>
  <g
     id="g96"
     transform="matrix(3.1491247,0,0,3.1491247,-111.79393,-155.88167)">
    <text
       font-size="10"
       xml:space="preserve"
       x="244"
       y="354"
       id="text98"
       style="font-size:10px;font-family:Helvetica;fill:#000000">propagateForward(net)</text>
  </g>
  <g
     id="g100"
     transform="matrix(3.1491247,0,0,3.1491247,-111.79393,-155.88167)">
    <line
       x1="163"
       y1="132"
       x2="163"
       y2="622"
       id="line102"
       style="stroke:#000000;stroke-dasharray:18, 6;stroke-opacity:1" />
  </g>
  <g
     id="g104"
     transform="matrix(3.1491247,0,0,3.1491247,-111.79393,-155.88167)">
    <line
       x1="435"
       y1="133"
       x2="435"
       y2="622"
       id="line106"
       style="stroke:#000000;stroke-dasharray:18, 6;stroke-opacity:1" />
  </g>
  <g
     id="g108"
     transform="matrix(3.1491247,0,0,3.1491247,-111.79393,-155.88167)">
    <line
       x1="690"
       y1="133"
       x2="690"
       y2="622"
       id="line110"
       style="stroke:#000000;stroke-dasharray:18, 6;stroke-opacity:1" />
  </g>
  <g
     id="g112"
     transform="matrix(3.1491247,0,0,3.1491247,-111.79393,-155.88167)">
    <line
       x1="553"
       y1="133"
       x2="553"
       y2="622"
       id="line114"
       style="stroke:#000000;stroke-dasharray:18, 6;stroke-opacity:1" />
  </g>
  <g
     id="g116"
     transform="matrix(3.1491247,0,0,3.1491247,-111.79393,-155.88167)">
    <line
       x1="305"
       y1="133"
       x2="305"
       y2="622"
       id="line118"
       style="stroke:#000000;stroke-dasharray:18, 6;stroke-opacity:1" />
  </g>
  <g
     id="g120"
     transform="matrix(3.1491247,0,0,3.1491247,-111.79393,-155.88167)"
     style="fill:#ffffff;fill-opacity:1">
    <rect
       x="548"
       y="407"
       width="10"
       height="47"
       id="rect122"
       style="fill:#ffffff;fill-opacity:1;stroke:#000000;stroke-width:1;stroke-opacity:1" />
  </g>
  <g
     id="g124"
     transform="matrix(3.1491247,0,0,3.1491247,-111.79393,-155.88167)"
     style="fill:#ffffff;fill-opacity:1">
    <rect
       x="685"
       y="480"
       width="10"
       height="53"
       id="rect126"
       style="fill:#ffffff;fill-opacity:1;stroke:#000000;stroke-width:1;stroke-opacity:1" />
  </g>
  <g
     id="g128"
     transform="matrix(3.1491247,0,0,3.1491247,-111.79393,-155.88167)"
     style="fill:#ffffff;fill-opacity:1">
    <rect
       x="300"
       y="299"
       width="10"
       height="36"
       id="rect130"
       style="fill:#ffffff;fill-opacity:1;stroke:#000000;stroke-width:1;stroke-opacity:1" />
  </g>
  <g
     id="g132"
     transform="matrix(3.1491247,0,0,3.1491247,-111.79393,-155.88167)"
     style="fill:#ffffff;fill-opacity:1">
    <rect
       x="430"
       y="357"
       width="10"
       height="40"
       id="rect134"
       style="fill:#ffffff;fill-opacity:1;stroke:#000000;stroke-width:1;stroke-opacity:1" />
  </g>
  <g
     id="g136"
     transform="matrix(3.1491247,0,0,3.1491247,-111.79393,-155.88167)"
     style="fill:#ffffff;fill-opacity:1">
    <rect
       x="158"
       y="156"
       width="10"
       height="446"
       id="rect138"
       style="fill:#ffffff;fill-opacity:1;stroke:#000000;stroke-width:1;stroke-opacity:1" />
  </g>
  <g
     id="g140"
     transform="matrix(3.1491247,0,0,3.1491247,-111.79393,-155.88167)">
    <line
       x1="169"
       y1="485"
       x2="685"
       y2="485"
       id="line142"
       style="stroke:#000000;stroke-opacity:1" />
    <polygon
       points="681,481 681,489 685,485 "
       id="polygon144"
       style="fill:#000000;stroke:none" />
  </g>
  <g
     id="g146"
     transform="matrix(3.1491247,0,0,3.1491247,-111.79393,-155.88167)">
    <line
       x1="169"
       y1="362"
       x2="430"
       y2="362"
       id="line148"
       style="stroke:#000000;stroke-opacity:1" />
    <polygon
       points="426,358 426,366 430,362 "
       id="polygon150"
       style="fill:#000000;stroke:none" />
  </g>
  <text
     font-size="10"
     xml:space="preserve"
     x="256.65363"
     y="536.92572"
     id="text152"
     style="font-size:31.49124718px;font-family:Helvetica;fill:#000000">[numberOfTrainingCycles]</text>
  <g
     id="g154"
     transform="matrix(3.1491247,0,0,3.1491247,-111.79393,-155.88167)">
    <line
       x1="169"
       y1="412"
       x2="548"
       y2="412"
       id="line156"
       style="stroke:#000000;stroke-opacity:1" />
    <polygon
       points="544,408 544,416 548,412 "
       id="polygon158"
       style="fill:#000000;stroke:none" />
  </g>
  <g
     id="g160"
     transform="matrix(3.1491247,0,0,3.1491247,-111.79393,-155.88167)">
    <line
       x1="169"
       y1="448"
       x2="548"
       y2="448"
       id="line162"
       style="stroke:#000000;stroke-dasharray:4, 4;stroke-opacity:1" />
    <path
       d="m 173,444 -4,4 4,4"
       id="path164"
       inkscape:connector-curvature="0"
       style="fill:none;stroke:#000000;stroke-opacity:1" />
  </g>
  <g
     id="g166"
     transform="matrix(3.1491247,0,0,3.1491247,-111.79393,-155.88167)">
    <line
       x1="169"
       y1="304"
       x2="300"
       y2="304"
       id="line168"
       style="stroke:#000000;stroke-opacity:1" />
    <polygon
       points="296,300 296,308 300,304 "
       id="polygon170"
       style="fill:#000000;stroke:none" />
  </g>
  <text
     font-size="10"
     xml:space="preserve"
     x="313.33783"
     y="700.68024"
     id="text172"
     style="font-size:31.49124718px;font-family:Helvetica;fill:#000000">[for each (img, digit) in trainingData ]</text>
  <g
     id="g174"
     transform="matrix(3.1491247,0,0,3.1491247,-111.79393,-155.88167)">
    <polygon
       points="132,249 132,259 122,269 96,269 96,249 96,249 "
       id="polygon176"
       style="fill:#ffffff;stroke:#000000;stroke-opacity:1" />
    <rect
       x="96"
       y="249"
       width="699"
       height="302"
       id="rect178"
       style="fill:none;stroke:#000000;stroke-width:1;stroke-opacity:1" />
    <text
       font-size="10"
       xml:space="preserve"
       x="109"
       y="265"
       id="text180"
       style="font-size:10px;font-family:Helvetica;text-anchor:middle;fill:#000000">loop</text>
    <line
       x1="96"
       y1="269"
       x2="122"
       y2="269"
       id="line182"
       style="stroke:#000000;stroke-opacity:1" />
    <line
       x1="122"
       y1="269"
       x2="132"
       y2="259"
       id="line184"
       style="stroke:#000000;stroke-opacity:1" />
    <line
       x1="132"
       y1="259"
       x2="132"
       y2="249"
       id="line186"
       style="stroke:#000000;stroke-opacity:1" />
  </g>
  <g
     id="g188"
     transform="matrix(3.1491247,0,0,3.1491247,-111.79393,-155.88167)">
    <polygon
       points="114,201 114,211 104,221 78,221 78,201 78,201 "
       id="polygon190"
       style="fill:#ffffff;stroke:#000000;stroke-opacity:1" />
    <rect
       x="78"
       y="201"
       width="731"
       height="368"
       id="rect192"
       style="fill:none;stroke:#000000;stroke-width:1;stroke-opacity:1" />
    <text
       font-size="10"
       xml:space="preserve"
       x="91"
       y="217"
       id="text194"
       style="font-size:10px;font-family:Helvetica;text-anchor:middle;fill:#000000">loop</text>
    <line
       x1="78"
       y1="221"
       x2="104"
       y2="221"
       id="line196"
       style="stroke:#000000;stroke-opacity:1" />
    <line
       x1="104"
       y1="221"
       x2="114"
       y2="211"
       id="line198"
       style="stroke:#000000;stroke-opacity:1" />
    <line
       x1="114"
       y1="211"
       x2="114"
       y2="201"
       id="line200"
       style="stroke:#000000;stroke-opacity:1" />
  </g>
</svg>
